<svg viewBox="0 0 32 32" fill="none" xmlns="http://www.w3.org/2000/svg"><path fill-rule="evenodd" clip-rule="evenodd" d="M16 31a14 14 0 1 0-12.2-7L2 31l7.3-1.7c2 1 4.3 1.7 6.7 1.7Zm0-2.2a11.8 11.8 0 1 0-9.7-5l-1 4 4-1c1.9 1.3 4.2 2 6.7 2Z" fill="#BFC8D0"/><path d="M28 16a12 12 0 0 1-18.8 9.9l-4.1 1 1-4A12 12 0 1 1 28 16Z" fill="url(#a)"/><path fill-rule="evenodd" clip-rule="evenodd" d="M16 30a14 14 0 1 0-12.2-7L2 30l7.3-1.7c2 1 4.3 1.7 6.7 1.7Zm0-2.2a11.8 11.8 0 1 0-9.7-5l-1 4 4-1c1.9 1.3 4.2 2 6.7 2Z" fill="#fff"/><path d="M12.5 9.5c-.3-.7-.8-.6-1.4-.6-.9 0-2.3 1-2.3 3.2 0 1.6.7 3.5 3.2 6.2 2.4 2.7 5.6 4 8.2 4 2.7 0 3.2-2.3 3.2-3 0-.4-.2-.6-.3-.6l-3-1.4c-.3-.1-.5 0-.7.2L18.2 19c-.2.2-.6 0-.7 0-.6-.2-2-.8-3.1-2-1.5-1.3-1.5-1.8-1.8-2.2-.2-.4 0-.6 0-.7l1-1.1c.1-.3 0-.7-.1-1l-1-2.5Z" fill="#fff"/><defs><linearGradient id="a" x1="26.5" y1="7" x2="4" y2="28" gradientUnits="userSpaceOnUse"><stop stop-color="#5BD066"/><stop offset="1" stop-color="#27B43E"/></linearGradient></defs></svg>